# xmcd
#
# Track frame offsets:
#	150
#	20918
#	32337
#	47322
#	64310
#	85748
#	104705
#	120265
#	141075
#	160720
#	174738
#	198050
#	221690
#	240540
#	261233
#	285140
#
# Disc length: 4052 seconds
#
# Revision: 1
# Processed by: cddbd v1.5.2PL0 Copyright (c) Steve Scherf et al.
# Submitted via: audiograbber 1.83.01
#
DISCID=d40fd210
DTITLE=Melissa Crabtree - Off the Beaten Path
DYEAR=2002
DGENRE=Folk
TTITLE0=Cat Fishin'
TTITLE1=Anna Lee
TTITLE2=Down the San Juan
TTITLE3=Wreckage After the Rapid
TTITLE4=Diamond Stud
TTITLE5=Step Grandmother
TTITLE6=Holed Up With YOu
TTITLE7=Off the Beaten Path
TTITLE8=Cody and the Deputy
TTITLE9=Tornado
TTITLE10=Burnin' Down
TTITLE11=It's Gotta End Here
TTITLE12=Clear Water Calm
TTITLE13=You Give Life
TTITLE14=So Many Birds
TTITLE15=Sleep on a Slick Rock
EXTD=
EXTT0=
EXTT1=
EXTT2=
EXTT3=
EXTT4=
EXTT5=
EXTT6=
EXTT7=
EXTT8=
EXTT9=
EXTT10=
EXTT11=
EXTT12=
EXTT13=
EXTT14=
EXTT15=
PLAYORDER=
